<svg xmlns="http://www.w3.org/2000/svg" xmlns:xlink="http://www.w3.org/1999/xlink" width="500" zoomAndPan="magnify" viewBox="0 0 375 374.999991" height="500" preserveAspectRatio="xMidYMid meet" version="1.0"><defs><g/><clipPath id="13ab981f51"><path d="M 78.171875 56.109375 L 305.78125 56.109375 L 305.78125 269 L 78.171875 269 Z M 78.171875 56.109375 " clip-rule="nonzero"/></clipPath><clipPath id="f987558965"><path d="M 69 51.929688 L 264 51.929688 L 264 275 L 69 275 Z M 69 51.929688 " clip-rule="nonzero"/></clipPath><clipPath id="f8e40dd8de"><path d="M 74.835938 261.625 L 293 261.625 L 293 284.429688 L 74.835938 284.429688 Z M 74.835938 261.625 " clip-rule="nonzero"/></clipPath></defs><g clip-path="url(#13ab981f51)"><path fill="#2990d1" d="M 251.683594 268.613281 L 251.859375 268.457031 C 252.582031 267.796875 257 263.550781 257.640625 263.976562 C 266.828125 258.546875 285.449219 238.605469 288.453125 229.101562 C 291.664062 218.949219 300.480469 214.667969 304.542969 194.695312 C 304.734375 193.765625 304.886719 194.445312 304.886719 192.496094 C 303.777344 191.160156 292.875 191.867188 291.722656 191.019531 C 291.664062 190.980469 281.46875 190.941406 279.925781 190.679688 C 278.238281 190.394531 276.667969 190.890625 274.195312 190.363281 C 273.761719 190.273438 267.847656 190.21875 266.429688 190.042969 C 264.570312 189.8125 261.964844 189.308594 260.105469 189.308594 C 260.816406 188.84375 264.898438 188.992188 266.378906 188.691406 C 268.914062 188.175781 276.003906 188.546875 278.011719 187.660156 C 278.046875 187.640625 286.140625 187.570312 288.019531 187.023438 C 293.832031 185.320312 301.34375 187.773438 303.941406 184.441406 C 304.457031 183.773438 305.082031 183.722656 305.125 182.441406 C 305.167969 181.195312 305.183594 179.960938 305.5 178.65625 C 305.898438 177.023438 305.761719 165.957031 305.761719 163.28125 C 305.605469 162.75 303.21875 146.589844 303.21875 145.894531 C 303.21875 145.707031 302.964844 144.191406 302.632812 142.457031 C 301.871094 138.492188 300.617188 138.273438 299.65625 137.988281 C 298.910156 137.769531 298.84375 137.113281 296.113281 137.167969 C 291.074219 137.261719 284.09375 137.128906 283.042969 136.722656 C 281.214844 136.011719 268.742188 136.785156 266.691406 136.085938 C 266.347656 135.964844 258.78125 135.566406 257.164062 135.507812 C 261.496094 134.714844 263.664062 134.988281 265.148438 134.574219 C 265.261719 134.542969 268.195312 134.546875 270.976562 134.296875 C 274.058594 134.03125 277.035156 133.503906 277.71875 133.480469 C 281.136719 133.335938 285.039062 133.253906 285.996094 132.84375 C 287.507812 132.191406 298.027344 133.648438 299.40625 132.878906 C 298.464844 129.839844 298.035156 131.203125 297.421875 127.761719 C 296.671875 123.546875 292.894531 120.839844 291.683594 115.464844 C 291.410156 114.242188 290.546875 113.355469 290.511719 112.824219 C 288.003906 111.480469 288.410156 108.09375 286.109375 105.820312 C 283.023438 102.78125 275.765625 89.617188 271.550781 88.210938 C 270.714844 86.007812 264.695312 82.679688 259.851562 80.003906 C 257.464844 78.691406 256.398438 77.214844 255.339844 76.429688 C 254.148438 75.546875 251.84375 74.230469 250.558594 73.386719 C 249.71875 72.84375 248.925781 72.15625 245.78125 72.125 C 234.417969 72.007812 208.335938 72.714844 204.441406 72.714844 C 208.472656 71.863281 224.710938 69.96875 229.808594 69.242188 C 234.546875 68.5625 240.398438 67.941406 241.128906 67.941406 C 241.234375 67.984375 233.484375 63.976562 229.984375 63.019531 C 227.886719 62.445312 224.71875 61.296875 221.460938 60.300781 C 217.070312 58.953125 212.441406 58.132812 210 58.230469 C 209.410156 58.25 203.84375 57.339844 201.585938 57.433594 C 196.367188 57.65625 191.542969 56.207031 186.875 56.441406 C 182.503906 56.664062 178.28125 58.578125 173.4375 58.855469 C 171.507812 58.960938 166.515625 60.5625 164.421875 60.773438 C 158.105469 63.175781 153.125 61.734375 145.605469 68.523438 C 144.703125 69.347656 132.921875 73.769531 127.421875 78.632812 C 123.894531 81.75 116.152344 85.828125 113.53125 89.773438 C 111.511719 92.8125 106.691406 94.578125 103.175781 100.195312 C 103.089844 100.332031 102.21875 101.257812 101.0625 102.496094 C 99.4375 104.242188 98.042969 106.589844 97.664062 108.972656 C 97.433594 110.417969 96.710938 112.035156 101.570312 112.265625 C 103.597656 112.355469 106.539062 113.0625 108.695312 113.0625 C 112.285156 113.0625 116.386719 113.859375 120.226562 113.859375 C 124.886719 113.859375 130.128906 114.175781 134.753906 114.175781 C 135.425781 114.175781 136.714844 114.535156 137.582031 114.535156 C 137.148438 114.507812 136.605469 114.875 135.324219 115.113281 C 133.175781 115.511719 124.941406 116.171875 122.730469 116.171875 C 121.394531 116.171875 114.058594 116.289062 113.128906 116.707031 C 111.671875 117.363281 101.261719 116.628906 97.984375 117.492188 C 97.257812 117.6875 93.605469 118.078125 92.800781 118.078125 C 91.789062 118.390625 87.71875 125.1875 87.566406 127.210938 C 87.476562 128.421875 84.269531 135.171875 83.75 137.175781 C 82.433594 140.015625 78.988281 156.527344 78.988281 159.382812 C 78.800781 160.320312 78.886719 160.457031 79.742188 160.457031 C 81.378906 160.457031 82.300781 160.5625 83.863281 160.65625 C 83.863281 160.65625 83.976562 160.652344 83.988281 160.652344 C 85.242188 160.652344 85.636719 160.671875 86.824219 160.808594 C 88.644531 161.007812 89.457031 161.210938 91.4375 161.210938 C 94.492188 161.210938 97.507812 161.355469 100.554688 161.410156 C 102.253906 161.441406 104.378906 161.96875 105.707031 161.96875 C 110.144531 161.667969 122.605469 160.925781 126.46875 161.691406 C 129.003906 162.195312 145.835938 163.84375 147.273438 163.007812 C 144.746094 166.171875 105.605469 163.425781 101.433594 165.433594 C 99.21875 166.5 89.21875 166.675781 85.351562 167.316406 C 84.378906 167.476562 79.867188 167.023438 79.148438 167.621094 C 79.144531 170.71875 78.910156 173.660156 78.910156 176.941406 C 78.910156 177.808594 79.542969 178.191406 79.542969 180.675781 C 79.542969 182.824219 80.269531 184.464844 80.179688 187.183594 C 80.164062 187.605469 80.550781 189.425781 80.8125 189.746094 C 81.359375 190.042969 80.890625 192.753906 80.890625 193.519531 C 80.890625 196.78125 84.597656 204.632812 84.546875 205.265625 C 86.902344 205.457031 88.667969 206.84375 91.953125 206.777344 C 92.984375 206.753906 96.242188 207.253906 98.070312 207.253906 C 100.859375 207.253906 110.90625 206.964844 112.734375 207.171875 C 110.050781 209.742188 100.332031 209.050781 95.570312 210.078125 C 93.242188 210.582031 88.628906 211.074219 86.214844 211.074219 C 92.050781 230.085938 98.960938 229.433594 102.523438 237.808594 C 103.734375 240.660156 112.945312 252.496094 115.4375 254.207031 C 117.605469 256.925781 130.503906 266.996094 134.296875 268.613281 L 251.683594 268.613281 " fill-opacity="1" fill-rule="evenodd"/></g><g clip-path="url(#f987558965)"><path fill="#fefefe" d="M 217.21875 108.066406 C 216.980469 109.136719 216.660156 110.195312 216.257812 111.207031 C 216.746094 111.148438 217.234375 111.109375 217.726562 111.097656 C 217.824219 110.527344 217.90625 109.949219 217.976562 109.375 C 218.050781 108.8125 218.082031 108.257812 218.101562 107.707031 C 217.804688 107.828125 217.511719 107.949219 217.21875 108.066406 Z M 204.398438 81.539062 C 208.011719 83.429688 211.328125 85.390625 214.476562 87.519531 C 215.460938 86.515625 216.957031 86.050781 218.335938 86.25 C 219.691406 85.566406 221.023438 85.425781 222.632812 86.035156 C 223.960938 85.8125 225.007812 85.984375 225.988281 86.816406 C 226.863281 86.921875 227.585938 87.117188 228.261719 87.527344 C 228.808594 86.613281 229.59375 85.890625 230.753906 85.601562 C 231.84375 85.332031 232.984375 85.519531 233.925781 86.027344 C 234.382812 85.953125 234.84375 85.953125 235.285156 86.03125 C 236.046875 86.175781 236.796875 86.554688 237.414062 87.078125 C 238.417969 87.261719 239.382812 87.789062 240.078125 88.574219 C 240.832031 88.8125 241.523438 89.222656 242.101562 89.828125 C 242.726562 90.476562 243.125 91.207031 243.367188 91.980469 C 244.476562 92.089844 245.585938 92.183594 246.6875 92.257812 C 247.25 92.296875 247.804688 92.335938 248.359375 92.429688 C 250.773438 92.839844 252.734375 94.335938 252.738281 96.988281 C 252.738281 97.203125 252.734375 97.421875 252.726562 97.640625 C 252.691406 98.304688 252.621094 98.964844 252.53125 99.617188 C 252.128906 102.5 250.398438 104.007812 247.433594 103.832031 C 245.902344 103.742188 244.367188 103.628906 242.832031 103.503906 C 242.617188 104.109375 242.332031 104.695312 241.945312 105.261719 C 241.691406 106.328125 242.128906 109.496094 242.277344 110.503906 C 242.804688 114.164062 243.015625 118.285156 241.898438 121.859375 C 241.085938 124.460938 239.597656 126.59375 237.28125 128.039062 C 235.363281 129.242188 233.210938 130.21875 231.058594 130.894531 L 230.753906 130.988281 C 228.5 133.167969 225.632812 134.4375 222.648438 135.289062 C 221.390625 135.644531 220.132812 135.921875 218.84375 136.136719 C 218.0625 136.265625 217.257812 136.359375 216.480469 136.527344 C 216.175781 136.589844 215.871094 136.667969 215.574219 136.773438 C 214.609375 137.101562 213.511719 137.828125 212.660156 138.390625 C 212.425781 138.546875 212.1875 138.714844 211.933594 138.886719 C 211.785156 139.929688 211.40625 141.011719 210.855469 141.953125 C 211.023438 143.414062 210.761719 145.09375 210.175781 146.507812 C 211.09375 147.902344 211.632812 149.488281 212.058594 151.101562 C 212.179688 151.554688 212.289062 152.042969 212.402344 152.539062 C 215.015625 152.339844 217.839844 153.800781 219.445312 155.863281 C 227.558594 153.125 235.613281 150.230469 243.554688 147.167969 C 244.976562 146.621094 246.417969 146.214844 247.921875 146.75 C 249.402344 147.285156 250.285156 148.507812 250.792969 149.941406 L 251.453125 151.808594 C 252.519531 154.839844 251.292969 157.101562 248.332031 158.164062 C 239.570312 161.3125 230.769531 164.378906 221.929688 167.324219 C 225.777344 170.445312 229.75 173.371094 233.730469 176.324219 C 234.753906 177.089844 235.773438 178.019531 236.726562 178.871094 C 238.128906 180.132812 239.515625 181.421875 240.894531 182.722656 C 242.28125 184.035156 243.660156 185.363281 245.011719 186.714844 C 245.917969 187.621094 246.957031 188.636719 247.742188 189.648438 C 248.269531 190.320312 248.820312 190.988281 249.367188 191.644531 C 249.8125 192.183594 250.320312 192.835938 250.8125 193.351562 C 255.496094 196.597656 258.535156 206.417969 258.535156 211.753906 C 258.574219 212.039062 258.847656 212.625 258.96875 212.898438 C 259.347656 213.75 259.722656 214.582031 260.015625 215.464844 C 260.929688 218.238281 260.816406 220.890625 259.414062 223.492188 C 259.023438 224.210938 258.804688 224.816406 258.511719 225.558594 C 257.984375 226.917969 257.207031 228.007812 256.304688 229.132812 C 255.816406 230.167969 255.621094 230.929688 254.523438 231.695312 C 254.511719 231.699219 254.507812 231.707031 254.496094 231.710938 C 254.5 232.257812 254.390625 232.828125 254.15625 233.394531 C 253.714844 234.457031 252.945312 235.628906 252.234375 236.535156 C 251.796875 237.085938 251.554688 237.566406 251.378906 238.253906 C 250.910156 240.089844 250.644531 241.976562 249.15625 243.324219 C 248.523438 243.898438 247.800781 244.25 247.027344 244.429688 C 245.824219 246.796875 244.847656 248.757812 244.847656 251.773438 C 244.847656 252.382812 244.878906 252.898438 245.308594 253.347656 C 246.109375 254.1875 247.058594 254.765625 247.898438 255.714844 C 248.789062 256.730469 251.03125 258.515625 252.207031 259.183594 C 254.445312 260.457031 255.195312 260.574219 257.664062 261.164062 C 259.179688 261.527344 260.628906 261.921875 261.765625 263.070312 C 263.425781 264.738281 263.480469 267.011719 263.0625 269.164062 C 263.601562 271.539062 262.140625 272.601562 260.054688 273.421875 C 257.84375 274.296875 253.777344 274.132812 251.300781 274.234375 C 249.324219 274.316406 247.386719 274.328125 245.414062 274.039062 C 242.511719 273.605469 240.28125 272.308594 238 270.546875 C 237.859375 270.433594 237.65625 270.273438 237.429688 270.089844 C 236.820312 270.984375 235.792969 271.539062 234.539062 271.480469 L 229.292969 271.480469 L 229.144531 271.46875 C 225.222656 271.042969 224.273438 267.351562 224.761719 264.082031 C 224.839844 263.578125 224.996094 263.113281 225.21875 262.710938 C 225.039062 259.976562 225.445312 257.746094 226.636719 255.003906 C 227.675781 252.601562 228.851562 250.019531 229.28125 247.421875 C 229.546875 245.796875 229.730469 243.40625 229.691406 241.617188 C 226.730469 242.371094 223.753906 242.511719 220.777344 243.191406 C 219.855469 243.402344 219.179688 243.6875 218.339844 244.09375 C 215.882812 245.292969 213.964844 245.71875 211.226562 245.976562 C 207.214844 246.351562 200.957031 247.113281 198.109375 243.675781 C 197.261719 242.648438 196.449219 241.570312 195.742188 240.445312 C 195.117188 239.453125 194.363281 237.652344 193.605469 235.46875 C 191.972656 240.1875 189.753906 247.015625 185.070312 249.589844 C 181.328125 251.644531 174.882812 249.222656 171.347656 247.550781 C 168.335938 246.128906 164.457031 243.835938 162.367188 241.199219 C 162.222656 241.015625 162.058594 240.84375 161.886719 240.683594 C 160.484375 239.394531 157.703125 238.429688 155.949219 237.65625 C 153.34375 236.503906 151.078125 235.222656 148.992188 233.496094 L 146.875 236.019531 C 146.023438 238.390625 143.578125 239.960938 141.671875 241.433594 C 140.863281 242.058594 139.945312 243.007812 139.203125 243.730469 C 138.53125 244.382812 137.605469 245.226562 136.996094 245.957031 C 135.921875 248.105469 135.207031 250.382812 133.863281 252.421875 C 133.105469 253.574219 133 254.992188 132.734375 256.308594 C 132.464844 257.628906 131.738281 258.921875 130.96875 260.054688 C 130.976562 260.574219 131.050781 261.207031 131.070312 261.65625 C 131.136719 262.921875 131.136719 264.191406 130.941406 265.449219 C 130.167969 270.429688 126.640625 272.867188 121.664062 272.867188 C 117.675781 272.867188 112.496094 270.199219 112.496094 265.675781 C 112.496094 261.96875 115.207031 256.621094 116.585938 253.105469 C 117.558594 250.628906 118.867188 248.09375 120.101562 245.738281 C 121.308594 243.429688 122.585938 241.0625 123.972656 238.855469 C 124.367188 238.226562 124.746094 237.570312 125.085938 236.914062 C 125.476562 236.167969 126.242188 234.585938 126.730469 233.355469 C 126.652344 233.238281 126.574219 233.113281 126.503906 232.984375 C 124.601562 229.460938 128.300781 225.386719 130.105469 222.644531 C 130.523438 222.003906 130.875 221.355469 131.175781 220.691406 C 129.246094 219.738281 127.296875 218.78125 125.519531 217.621094 C 123.660156 216.410156 122.039062 214.597656 122.699219 212.203125 C 123.230469 210.277344 124.925781 209.410156 126.6875 208.886719 C 127.144531 208.753906 127.738281 208.632812 128.171875 208.457031 C 130.414062 207.546875 132.578125 206.390625 134.734375 205.300781 C 135.996094 204.664062 137.238281 203.683594 138.382812 202.851562 C 140.066406 201.625 141.742188 200.492188 143.628906 199.597656 C 144.605469 199.136719 145.757812 197.949219 146.5 197.175781 C 147.945312 195.675781 149.308594 194.140625 150.828125 192.714844 C 153.160156 190.539062 156.238281 188.96875 158.25 186.511719 C 158.402344 186.332031 158.554688 186.144531 158.707031 185.960938 C 152.980469 187.347656 147.234375 188.632812 141.476562 189.785156 C 135.96875 190.890625 130.429688 191.878906 124.871094 192.648438 C 120.304688 193.28125 115.660156 193.789062 111.050781 193.941406 C 109.738281 193.984375 108.4375 193.421875 107.429688 192.601562 C 106.140625 191.558594 105.210938 189.980469 105.355469 188.277344 C 105.578125 185.652344 107.917969 184.414062 110.246094 184.027344 C 131.460938 180.480469 152.75 175.429688 173.542969 169.753906 L 173.828125 169.375 C 174.417969 167.320312 174.503906 165.109375 174.550781 162.992188 C 174.601562 160.699219 174.554688 158.054688 175.308594 155.875 C 175.6875 154.789062 176.308594 153.914062 177.125 153.285156 C 176.929688 152.5 176.703125 151.71875 176.472656 150.941406 C 174.835938 145.5 173.410156 141.257812 174.378906 135.527344 C 173.25 129.0625 174.699219 122.875 179.683594 118.347656 C 181.746094 116.472656 184.253906 115.28125 186.714844 114.046875 C 187.714844 113.546875 189.996094 112.25 191.324219 111.234375 C 191.199219 110.574219 191.105469 109.890625 191.039062 109.210938 C 187.058594 108.179688 183.089844 106.664062 179.183594 104.730469 L 175.769531 103.042969 L 178.371094 100.257812 C 180.050781 98.453125 181.859375 96.6875 183.753906 94.976562 C 168.410156 92.167969 153.121094 89 137.957031 85.363281 C 130.09375 83.480469 122.269531 81.410156 114.519531 79.109375 C 107.589844 77.050781 100.675781 74.8125 93.917969 72.242188 C 88.792969 70.289062 83.402344 68.058594 78.65625 65.292969 C 75.789062 63.625 71.734375 60.957031 70.71875 57.597656 L 69.003906 51.929688 L 74.476562 54.148438 C 84.667969 58.273438 95.1875 61.804688 105.691406 65.03125 C 117.691406 68.710938 129.828125 72.007812 142.011719 75 C 159.484375 79.289062 177.378906 83.109375 195.222656 85.882812 C 197.34375 84.386719 199.480469 82.972656 201.59375 81.648438 L 202.96875 80.792969 L 204.398438 81.539062 " fill-opacity="1" fill-rule="evenodd"/></g><path fill="#000000" d="M 73.421875 56.773438 C 107.390625 70.527344 163.421875 84.425781 202.558594 89.820312 L 203.183594 86.191406 L 205.585938 86.605469 L 205.011719 89.957031 C 211.175781 90.8125 238.160156 94.53125 246.503906 95.082031 C 247.769531 95.167969 249.910156 95.261719 249.914062 96.992188 C 249.914062 97.15625 249.910156 97.332031 249.902344 97.503906 C 249.871094 98.132812 249.792969 98.78125 249.734375 99.226562 C 249.558594 100.496094 249.207031 101.101562 247.605469 101.003906 C 234.507812 100.230469 216.898438 97.546875 204.015625 95.730469 L 203.308594 99.832031 L 200.90625 99.414062 L 201.628906 95.222656 C 180.652344 91.734375 159.285156 87.566406 138.617188 82.613281 C 106.800781 74.988281 75.652344 64.140625 73.421875 56.773438 " fill-opacity="1" fill-rule="evenodd"/><path fill="#000000" d="M 248.132812 150.886719 L 248.789062 152.753906 C 249.316406 154.246094 248.925781 154.941406 247.378906 155.496094 C 224.761719 163.628906 201.445312 171.300781 178.371094 177.84375 C 152.757812 185.113281 126.585938 190.59375 110.960938 191.109375 C 109.070312 191.175781 105.882812 187.625 110.707031 186.820312 C 151.425781 180.023438 206.125 164.640625 244.570312 149.808594 C 246.320312 149.136719 247.433594 148.917969 248.132812 150.886719 " fill-opacity="1" fill-rule="evenodd"/><path fill="#000000" d="M 209.796875 94.425781 C 216.679688 98.023438 216.207031 109.660156 210.183594 115.40625 C 211.289062 115.402344 216.277344 113.511719 218.949219 114.015625 C 218.992188 115.675781 218.71875 117.347656 218.347656 118.820312 C 219.738281 115.859375 220.402344 112.75 220.78125 109.726562 C 221.074219 107.367188 220.699219 105.339844 221.175781 102.835938 C 219.324219 102.382812 215.21875 101.484375 215 97.746094 C 215.105469 97.558594 215.414062 96.035156 215.410156 95.847656 C 215.394531 95.300781 215.53125 91.464844 216.292969 89.789062 C 216.609375 89.089844 218.035156 88.695312 218.605469 89.410156 C 219.777344 88.554688 220.496094 88.152344 221.957031 88.820312 C 222.953125 89.273438 223.492188 88.078125 224.53125 89.367188 C 224.972656 89.910156 226.203125 89.035156 227.53125 90.636719 C 227.816406 90.984375 228.136719 92.777344 228.136719 93.25 C 228.484375 93.785156 228.671875 95.449219 228.671875 97.089844 C 228.875 95.113281 229.636719 93.269531 229.972656 91.253906 C 230.1875 89.980469 230.578125 88.5625 231.429688 88.351562 C 232.523438 88.082031 233.335938 88.964844 233.210938 89.550781 C 233.320312 89.351562 234.015625 88.675781 234.761719 88.816406 C 235.597656 88.972656 236.164062 89.792969 236.046875 90.097656 C 236.445312 89.597656 238.140625 89.882812 238.28125 91.140625 C 241.832031 91.105469 240.796875 95.925781 240.699219 98.386719 C 240.632812 100.128906 240.628906 102.34375 239.472656 103.859375 C 238.777344 105.058594 239.074219 108.089844 239.480469 110.910156 C 240.113281 115.28125 239.976562 118.546875 239.203125 121.011719 C 238.539062 123.132812 237.398438 124.632812 235.789062 125.632812 C 234.183594 126.640625 232.226562 127.558594 230.210938 128.191406 C 230.558594 125.777344 230.339844 123.574219 230.339844 123.574219 C 230.238281 125.6875 229.75 128.011719 228.863281 128.882812 C 226.976562 130.734375 224.488281 131.820312 221.878906 132.5625 C 218.25 133.59375 216.671875 133.40625 214.664062 134.089844 C 211.863281 135.042969 208.3125 138.34375 206.386719 138.878906 C 206.929688 138.972656 208.375 138.738281 209.160156 138.304688 C 209.109375 138.804688 208.800781 140.351562 207.78125 141.363281 C 208.402344 142.296875 207.96875 145.851562 206.679688 146.765625 C 209.402344 149.09375 209.390625 153.578125 210.648438 156.503906 C 212 154.210938 216.21875 155.660156 217.597656 158.175781 C 219.507812 161.664062 218.375 163.28125 219.292969 168.820312 C 223.441406 172.246094 226.976562 174.832031 232.046875 178.597656 C 234.269531 180.25 243.875 189.285156 245.519531 191.390625 C 246.097656 192.136719 248.539062 195.121094 249.011719 195.554688 C 252.785156 197.898438 255.714844 207.054688 255.714844 211.8125 C 255.714844 214.054688 259.394531 217.566406 256.929688 222.148438 C 255.53125 224.738281 256.324219 224.589844 253.980469 227.515625 C 253.667969 227.898438 253.46875 228.980469 252.910156 229.367188 C 251.132812 230.605469 248.144531 231.0625 248.140625 231.058594 C 249.824219 230.949219 250.441406 230.953125 250.796875 230.976562 C 251.613281 231.03125 251.851562 231.566406 251.546875 232.3125 C 251.160156 233.246094 250.320312 234.390625 250.015625 234.777344 C 249.53125 235.390625 248.992188 236.199219 248.640625 237.550781 C 247.984375 240.109375 247.894531 241.972656 245.21875 241.726562 C 243.824219 244.589844 242.019531 247.308594 242.019531 251.773438 C 242.019531 255.359375 244.070312 255.648438 245.777344 257.585938 C 246.84375 258.808594 249.519531 260.914062 250.816406 261.648438 C 253.535156 263.191406 254.109375 263.222656 257.007812 263.917969 C 259.472656 264.511719 261.152344 264.992188 260.179688 269.136719 C 260.230469 270.136719 260.960938 270.027344 259.019531 270.789062 C 257.488281 271.394531 253.203125 271.320312 251.183594 271.402344 C 249.414062 271.480469 247.671875 271.507812 245.828125 271.234375 C 240.667969 270.46875 238.257812 266.078125 235.210938 265.554688 C 235.210938 265.574219 235.210938 267.097656 235.210938 268.011719 C 235.210938 268.421875 235.09375 268.6875 234.617188 268.648438 L 229.441406 268.648438 C 227.230469 268.414062 227.363281 265.824219 227.558594 264.503906 C 227.664062 263.785156 227.949219 263.980469 228.179688 263.914062 C 227.78125 260.90625 228.015625 258.925781 229.226562 256.132812 C 230.363281 253.515625 231.59375 250.757812 232.070312 247.882812 C 232.3125 246.382812 232.589844 242.84375 232.496094 240.941406 C 232.398438 239.007812 230.785156 238.414062 229.105469 238.847656 C 225.792969 239.703125 223.980469 239.558594 220.152344 240.429688 C 216.550781 241.25 216.75 242.609375 210.960938 243.152344 C 206.980469 243.527344 202.054688 244.003906 200.28125 241.867188 C 199.636719 241.082031 198.828125 240.035156 198.128906 238.933594 C 195.757812 235.167969 192.203125 220.605469 192.378906 217.554688 C 191.910156 219.703125 192.390625 224.980469 193.199219 229.082031 C 190.207031 234.808594 190.332031 238.375 187.441406 242.988281 C 186.0625 245.1875 184.886719 246.460938 183.710938 247.109375 C 179.984375 249.152344 167.972656 243.71875 164.578125 239.4375 C 161.433594 235.46875 154.773438 235.859375 148.753906 229.382812 L 144.324219 234.65625 C 144.03125 236.347656 141.652344 237.875 139.949219 239.191406 C 139.082031 239.855469 134.839844 243.96875 134.585938 244.457031 C 133.710938 246.164062 132.667969 249.101562 131.503906 250.863281 C 130.425781 252.503906 130.332031 253.921875 129.964844 255.746094 C 129.820312 256.453125 129.375 257.425781 128.292969 258.953125 C 127.457031 260.125 130.992188 270.039062 121.664062 270.039062 C 119.042969 270.039062 115.324219 268.316406 115.324219 265.675781 C 115.324219 262.835938 117.558594 258.375 119.214844 254.136719 C 120.527344 250.796875 124.375 243.519531 126.359375 240.367188 C 126.789062 239.6875 127.21875 238.9375 127.59375 238.21875 C 128.097656 237.253906 130.347656 232.464844 129.863281 232.304688 C 126.75 231.285156 131.511719 225.652344 132.464844 224.207031 C 133.371094 222.824219 133.980469 221.507812 134.742188 219.316406 C 131.941406 217.859375 129.214844 216.652344 127.0625 215.246094 C 125.507812 214.234375 125.265625 213.519531 125.421875 212.953125 C 125.746094 211.789062 128.117188 211.535156 129.234375 211.082031 C 131.472656 210.171875 133.699219 208.996094 136.003906 207.828125 C 138.640625 206.496094 141.1875 203.886719 144.835938 202.160156 C 147.273438 201.003906 149.617188 197.722656 152.757812 194.789062 C 155.085938 192.613281 158.15625 191.097656 160.433594 188.3125 C 164.628906 183.1875 172.804688 175.644531 176.390625 170.660156 C 178.023438 165.617188 176.855469 160.035156 177.976562 156.804688 C 178.410156 155.566406 179.3125 155.078125 180.359375 155 C 179.34375 148.582031 175.769531 143.222656 177.25 135.523438 C 176.058594 129.464844 177.425781 124.21875 181.582031 120.445312 C 183.363281 118.824219 185.707031 117.71875 187.980469 116.578125 C 190.460938 115.335938 193.714844 113.207031 194.441406 112.128906 C 194.109375 111.066406 193.285156 108.40625 193.277344 105.832031 C 192.730469 104.761719 192.769531 102.246094 193.242188 101.105469 C 193.476562 100.535156 194 100.378906 194.453125 100.5 C 195.089844 98.375 196.195312 96.480469 198.03125 95.316406 C 199.488281 94.386719 201.375 93.863281 203.761719 93.863281 C 203.691406 90.949219 203.832031 88.351562 206.890625 90.753906 C 207.847656 91.511719 210.027344 88.910156 210.535156 91.519531 C 210.734375 92.535156 210.46875 93.621094 209.796875 94.425781 Z M 230.054688 112.226562 C 229.535156 109.171875 228.78125 105.78125 228.394531 103.34375 C 228.144531 101.78125 228.246094 100.488281 228.261719 100.449219 C 228.445312 100.003906 228.566406 99.257812 228.625 98.410156 C 228.648438 98.949219 228.722656 99.503906 228.871094 100.078125 C 229.386719 102.105469 231.722656 101.894531 232.636719 104.144531 C 232.601562 108.097656 232.242188 110.425781 230.054688 112.226562 " fill-opacity="1" fill-rule="evenodd"/><path fill="#000000" d="M 180.429688 102.191406 C 196.082031 109.929688 211.933594 109.964844 225.566406 100.117188 C 218.082031 93.011719 211.554688 88.476562 203.09375 84.050781 C 195.195312 88.996094 186.664062 95.515625 180.429688 102.191406 " fill-opacity="1" fill-rule="evenodd"/><g clip-path="url(#f8e40dd8de)"><path fill="#000000" d="M 74.90625 277.660156 C 85.96875 275.066406 109.613281 267.464844 122.035156 265.832031 C 125.335938 265.398438 134.539062 264.476562 142.375 263.554688 C 151.492188 262.480469 159.800781 261.949219 169.015625 261.882812 C 181.242188 261.789062 195.265625 262.808594 207.488281 263.023438 C 224.785156 263.324219 243.675781 264.867188 259.003906 266.984375 C 269.511719 268.4375 283.453125 271.59375 292.664062 274.734375 C 292.734375 274.90625 281.769531 273.140625 271.511719 272.917969 C 266.164062 272.800781 247.769531 270.78125 251.8125 275.421875 C 253.933594 277.847656 256.957031 280.980469 252.054688 280.433594 C 236.257812 278.667969 237.847656 276 225.289062 273.035156 C 217.113281 271.105469 205.804688 269.25 215.492188 275.804688 C 219.109375 278.246094 211.617188 283.667969 198.609375 276.917969 C 194.910156 275 175.949219 269.835938 182.75 275.964844 C 185.625 278.554688 178.800781 283.898438 172.761719 276.964844 C 169.339844 273.035156 162.730469 273.621094 157.769531 273.414062 C 153.816406 273.25 150.011719 273.933594 146.328125 274.773438 C 140.460938 276.109375 137.324219 280.734375 130.664062 282.703125 C 125.378906 284.269531 120.648438 285.480469 118.800781 283.097656 C 117.734375 281.722656 114.640625 277.863281 120.652344 275.484375 C 124.054688 274.136719 119.277344 273.496094 117.636719 273.59375 C 112.960938 273.878906 106.078125 274.546875 100.082031 275.171875 C 91.699219 276.054688 83.160156 277.476562 74.90625 277.660156 " fill-opacity="1" fill-rule="evenodd"/></g><g fill="#fefefe" fill-opacity="1"><g transform="translate(84.242126, 315.854115)"><g><path d="M 20.90625 -20.046875 C 19.851562 -19.453125 18.691406 -18.804688 17.421875 -18.109375 C 16.160156 -17.421875 14.898438 -16.722656 13.640625 -16.015625 C 12.390625 -15.316406 11.210938 -14.632812 10.109375 -13.96875 C 9.003906 -13.3125 8.085938 -12.71875 7.359375 -12.1875 C 8.285156 -11.59375 9.265625 -10.898438 10.296875 -10.109375 C 11.335938 -9.316406 12.390625 -8.457031 13.453125 -7.53125 C 14.523438 -6.601562 15.59375 -5.617188 16.65625 -4.578125 C 17.726562 -3.546875 18.769531 -2.484375 19.78125 -1.390625 C 20.375 -0.742188 20.566406 -0.382812 20.359375 -0.3125 C 20.148438 -0.238281 19.738281 -0.410156 19.125 -0.828125 C 17.1875 -2.148438 15.148438 -3.390625 13.015625 -4.546875 C 10.878906 -5.703125 8.832031 -6.753906 6.875 -7.703125 C 6.757812 -6.679688 6.65625 -5.703125 6.5625 -4.765625 C 6.476562 -3.835938 6.382812 -2.953125 6.28125 -2.109375 C 6.1875 -1.316406 6.050781 -0.734375 5.875 -0.359375 C 5.695312 0.015625 5.519531 0.195312 5.34375 0.1875 C 5.175781 0.175781 5.019531 -0.0195312 4.875 -0.40625 C 4.726562 -0.789062 4.632812 -1.347656 4.59375 -2.078125 C 4.550781 -3.085938 4.472656 -4.171875 4.359375 -5.328125 C 4.242188 -6.484375 4.125 -7.710938 4 -9.015625 C 3.78125 -9.128906 3.570312 -9.226562 3.375 -9.3125 C 3.175781 -9.40625 2.976562 -9.492188 2.78125 -9.578125 C 2.53125 -9.691406 2.515625 -9.914062 2.734375 -10.25 C 2.960938 -10.59375 3.296875 -10.941406 3.734375 -11.296875 C 3.515625 -13.054688 3.273438 -14.90625 3.015625 -16.84375 C 2.765625 -18.78125 2.5 -20.796875 2.21875 -22.890625 C 2.195312 -23.148438 2.320312 -23.3125 2.59375 -23.375 C 2.863281 -23.445312 3.210938 -23.441406 3.640625 -23.359375 C 4.078125 -23.285156 4.550781 -23.160156 5.0625 -22.984375 C 5.582031 -22.804688 6.0625 -22.597656 6.5 -22.359375 C 6.945312 -22.117188 7.3125 -21.851562 7.59375 -21.5625 C 7.882812 -21.28125 8.019531 -21.007812 8 -20.75 C 7.90625 -19.726562 7.816406 -18.679688 7.734375 -17.609375 C 7.660156 -16.546875 7.582031 -15.453125 7.5 -14.328125 C 8.226562 -15.171875 8.957031 -15.953125 9.6875 -16.671875 C 10.425781 -17.398438 11.140625 -18.078125 11.828125 -18.703125 C 12.523438 -19.335938 13.191406 -19.9375 13.828125 -20.5 C 14.472656 -21.0625 15.0625 -21.601562 15.59375 -22.125 C 15.769531 -22.300781 16.0625 -22.394531 16.46875 -22.40625 C 16.875 -22.414062 17.316406 -22.363281 17.796875 -22.25 C 18.285156 -22.144531 18.773438 -22.003906 19.265625 -21.828125 C 19.765625 -21.648438 20.179688 -21.453125 20.515625 -21.234375 C 20.847656 -21.015625 21.066406 -20.800781 21.171875 -20.59375 C 21.285156 -20.382812 21.195312 -20.203125 20.90625 -20.046875 Z M 20.90625 -20.046875 "/></g></g></g><g fill="#fefefe" fill-opacity="1"><g transform="translate(104.852848, 315.854115)"><g><path d="M 20.34375 -9.640625 C 20.34375 -7.742188 19.972656 -6.109375 19.234375 -4.734375 C 18.503906 -3.359375 17.578125 -2.265625 16.453125 -1.453125 C 15.328125 -0.640625 14.09375 -0.125 12.75 0.09375 C 11.40625 0.3125 10.117188 0.222656 8.890625 -0.171875 C 7.671875 -0.566406 6.601562 -1.285156 5.6875 -2.328125 C 4.78125 -3.367188 4.179688 -4.75 3.890625 -6.46875 C 3.472656 -9.03125 3.175781 -11.648438 3 -14.328125 C 2.820312 -17.015625 2.757812 -19.769531 2.8125 -22.59375 C 2.8125 -22.875 2.960938 -23.054688 3.265625 -23.140625 C 3.578125 -23.234375 3.957031 -23.25 4.40625 -23.1875 C 4.863281 -23.125 5.34375 -23 5.84375 -22.8125 C 6.351562 -22.625 6.816406 -22.394531 7.234375 -22.125 C 7.648438 -21.863281 7.972656 -21.578125 8.203125 -21.265625 C 8.441406 -20.960938 8.515625 -20.664062 8.421875 -20.375 C 8.066406 -19.226562 7.742188 -18.023438 7.453125 -16.765625 C 7.171875 -15.515625 6.9375 -14.269531 6.75 -13.03125 C 6.5625 -11.789062 6.414062 -10.582031 6.3125 -9.40625 C 6.21875 -8.238281 6.171875 -7.171875 6.171875 -6.203125 C 6.171875 -5.304688 6.367188 -4.578125 6.765625 -4.015625 C 7.160156 -3.453125 7.671875 -3.066406 8.296875 -2.859375 C 8.929688 -2.648438 9.648438 -2.617188 10.453125 -2.765625 C 11.253906 -2.921875 12.054688 -3.269531 12.859375 -3.8125 C 13.671875 -4.351562 14.4375 -5.09375 15.15625 -6.03125 C 15.882812 -6.96875 16.503906 -8.109375 17.015625 -9.453125 C 17.234375 -10.023438 17.429688 -10.773438 17.609375 -11.703125 C 17.785156 -12.640625 17.929688 -13.65625 18.046875 -14.75 C 18.171875 -15.84375 18.269531 -16.96875 18.34375 -18.125 C 18.425781 -19.28125 18.46875 -20.375 18.46875 -21.40625 C 18.46875 -22.039062 18.515625 -22.535156 18.609375 -22.890625 C 18.710938 -23.242188 18.820312 -23.429688 18.9375 -23.453125 C 19.0625 -23.472656 19.191406 -23.3125 19.328125 -22.96875 C 19.472656 -22.632812 19.601562 -22.09375 19.71875 -21.34375 C 19.851562 -20.394531 19.957031 -19.460938 20.03125 -18.546875 C 20.113281 -17.628906 20.179688 -16.703125 20.234375 -15.765625 C 20.285156 -14.835938 20.316406 -13.863281 20.328125 -12.84375 C 20.335938 -11.832031 20.34375 -10.765625 20.34375 -9.640625 Z M 20.34375 -9.640625 "/></g></g></g><g fill="#fefefe" fill-opacity="1"><g transform="translate(127.643555, 315.854115)"><g><path d="M 19.546875 -16.1875 C 19.328125 -15.613281 18.945312 -15.050781 18.40625 -14.5 C 17.875 -13.945312 17.226562 -13.429688 16.46875 -12.953125 C 15.707031 -12.484375 14.859375 -12.066406 13.921875 -11.703125 C 12.984375 -11.347656 12 -11.054688 10.96875 -10.828125 C 11.84375 -10.054688 12.617188 -9.347656 13.296875 -8.703125 C 13.984375 -8.054688 14.644531 -7.375 15.28125 -6.65625 C 15.925781 -5.9375 16.578125 -5.160156 17.234375 -4.328125 C 17.898438 -3.492188 18.660156 -2.515625 19.515625 -1.390625 C 20.023438 -0.679688 20.191406 -0.289062 20.015625 -0.21875 C 19.835938 -0.15625 19.453125 -0.328125 18.859375 -0.734375 C 17.492188 -1.628906 16.265625 -2.425781 15.171875 -3.125 C 14.085938 -3.832031 13.082031 -4.472656 12.15625 -5.046875 C 11.226562 -5.617188 10.335938 -6.140625 9.484375 -6.609375 C 8.640625 -7.085938 7.769531 -7.550781 6.875 -8 C 6.675781 -8.082031 6.59375 -8.328125 6.625 -8.734375 C 6.65625 -9.140625 6.757812 -9.566406 6.9375 -10.015625 C 7.113281 -10.472656 7.34375 -10.890625 7.625 -11.265625 C 7.914062 -11.640625 8.210938 -11.847656 8.515625 -11.890625 C 9.359375 -12.003906 10.171875 -12.238281 10.953125 -12.59375 C 11.734375 -12.957031 12.429688 -13.375 13.046875 -13.84375 C 13.660156 -14.320312 14.164062 -14.804688 14.5625 -15.296875 C 14.957031 -15.796875 15.179688 -16.242188 15.234375 -16.640625 C 15.316406 -17.285156 15.285156 -17.816406 15.140625 -18.234375 C 15.003906 -18.648438 14.785156 -18.988281 14.484375 -19.25 C 14.179688 -19.519531 13.828125 -19.726562 13.421875 -19.875 C 13.015625 -20.03125 12.582031 -20.175781 12.125 -20.3125 C 11.570312 -20.46875 10.90625 -20.550781 10.125 -20.5625 C 9.34375 -20.570312 8.519531 -20.488281 7.65625 -20.3125 C 7.394531 -18.882812 7.144531 -17.328125 6.90625 -15.640625 C 6.664062 -13.953125 6.445312 -12.273438 6.25 -10.609375 C 6.050781 -8.953125 5.878906 -7.367188 5.734375 -5.859375 C 5.585938 -4.347656 5.492188 -3.035156 5.453125 -1.921875 C 5.429688 -1.148438 5.347656 -0.59375 5.203125 -0.25 C 5.054688 0.09375 4.90625 0.265625 4.75 0.265625 C 4.601562 0.265625 4.457031 0.117188 4.3125 -0.171875 C 4.164062 -0.472656 4.0625 -0.890625 4 -1.421875 C 3.882812 -2.472656 3.757812 -3.742188 3.625 -5.234375 C 3.5 -6.722656 3.375 -8.296875 3.25 -9.953125 C 3.132812 -11.617188 3.03125 -13.300781 2.9375 -15 C 2.851562 -16.695312 2.785156 -18.269531 2.734375 -19.71875 C 1.660156 -19.457031 1.125 -19.445312 1.125 -19.6875 C 1.125 -19.925781 1.648438 -20.234375 2.703125 -20.609375 L 2.703125 -23.0625 C 2.703125 -23.300781 2.847656 -23.425781 3.140625 -23.4375 C 3.441406 -23.445312 3.804688 -23.394531 4.234375 -23.28125 C 4.671875 -23.175781 5.128906 -23.019531 5.609375 -22.8125 C 6.097656 -22.601562 6.519531 -22.375 6.875 -22.125 C 7.445312 -22.320312 7.984375 -22.492188 8.484375 -22.640625 C 8.992188 -22.785156 9.507812 -22.898438 10.03125 -22.984375 C 10.5625 -23.078125 11.117188 -23.128906 11.703125 -23.140625 C 12.285156 -23.148438 12.929688 -23.132812 13.640625 -23.09375 C 14.585938 -23.019531 15.472656 -22.734375 16.296875 -22.234375 C 17.128906 -21.742188 17.820312 -21.148438 18.375 -20.453125 C 18.9375 -19.765625 19.332031 -19.035156 19.5625 -18.265625 C 19.800781 -17.492188 19.796875 -16.800781 19.546875 -16.1875 Z M 19.546875 -16.1875 "/></g></g></g><g fill="#fefefe" fill-opacity="1"><g transform="translate(148.452456, 315.854115)"><g><path d="M 20.703125 -1.28125 C 20.992188 -0.289062 20.988281 0.222656 20.6875 0.265625 C 20.394531 0.304688 19.972656 -0.195312 19.421875 -1.25 C 18.847656 -2.351562 18.28125 -3.40625 17.71875 -4.40625 C 17.15625 -5.40625 16.597656 -6.378906 16.046875 -7.328125 C 15.054688 -6.929688 14.097656 -6.578125 13.171875 -6.265625 C 12.253906 -5.960938 11.34375 -5.675781 10.4375 -5.40625 C 9.53125 -5.144531 8.625 -4.898438 7.71875 -4.671875 C 6.820312 -4.441406 5.898438 -4.21875 4.953125 -4 C 4.773438 -3.957031 4.5625 -4.015625 4.3125 -4.171875 C 4.0625 -4.335938 3.789062 -4.554688 3.5 -4.828125 C 3.1875 -4.234375 2.867188 -3.632812 2.546875 -3.03125 C 2.234375 -2.4375 1.925781 -1.832031 1.625 -1.21875 C 1.351562 -0.6875 1.101562 -0.304688 0.875 -0.078125 C 0.644531 0.148438 0.46875 0.238281 0.34375 0.1875 C 0.226562 0.144531 0.175781 -0.03125 0.1875 -0.34375 C 0.195312 -0.664062 0.3125 -1.113281 0.53125 -1.6875 C 0.8125 -2.457031 1.085938 -3.222656 1.359375 -3.984375 C 1.640625 -4.742188 1.9375 -5.507812 2.25 -6.28125 C 1.957031 -6.71875 1.78125 -7.085938 1.71875 -7.390625 C 1.65625 -7.703125 1.773438 -7.867188 2.078125 -7.890625 C 2.210938 -7.890625 2.347656 -7.890625 2.484375 -7.890625 C 2.609375 -7.890625 2.738281 -7.898438 2.875 -7.921875 C 3.507812 -9.640625 4.195312 -11.476562 4.9375 -13.4375 C 5.675781 -15.40625 6.519531 -17.628906 7.46875 -20.109375 C 7.226562 -20.421875 6.992188 -20.722656 6.765625 -21.015625 C 6.546875 -21.316406 6.316406 -21.625 6.078125 -21.9375 C 5.898438 -22.175781 5.921875 -22.382812 6.140625 -22.5625 C 6.359375 -22.738281 6.695312 -22.878906 7.15625 -22.984375 C 7.625 -23.097656 8.15625 -23.164062 8.75 -23.1875 C 9.34375 -23.207031 9.921875 -23.179688 10.484375 -23.109375 C 11.046875 -23.046875 11.539062 -22.925781 11.96875 -22.75 C 12.40625 -22.582031 12.6875 -22.34375 12.8125 -22.03125 C 13.9375 -19.539062 14.929688 -17.28125 15.796875 -15.25 C 16.671875 -13.226562 17.472656 -11.207031 18.203125 -9.1875 C 18.304688 -9.226562 18.421875 -9.253906 18.546875 -9.265625 C 18.671875 -9.273438 18.785156 -9.289062 18.890625 -9.3125 C 19.859375 -9.488281 20.320312 -9.492188 20.28125 -9.328125 C 20.238281 -9.160156 19.8125 -8.90625 19 -8.5625 L 18.5 -8.359375 C 18.894531 -7.253906 19.269531 -6.128906 19.625 -4.984375 C 19.976562 -3.835938 20.335938 -2.601562 20.703125 -1.28125 Z M 15.1875 -8.75 C 14.394531 -10.070312 13.585938 -11.445312 12.765625 -12.875 C 11.941406 -14.3125 11.054688 -15.691406 10.109375 -17.015625 C 9.203125 -15.398438 8.34375 -13.820312 7.53125 -12.28125 C 6.71875 -10.738281 5.945312 -9.3125 5.21875 -8 C 7.113281 -8.0625 8.851562 -8.148438 10.4375 -8.265625 C 12.019531 -8.390625 13.601562 -8.550781 15.1875 -8.75 Z M 15.1875 -8.75 "/></g></g></g><g fill="#fefefe" fill-opacity="1"><g transform="translate(170.252259, 315.854115)"><g/></g></g><g fill="#fefefe" fill-opacity="1"><g transform="translate(186.767268, 315.854115)"><g><path d="M 21.203125 -12.328125 C 21.078125 -10.410156 20.6875 -8.675781 20.03125 -7.125 C 19.382812 -5.570312 18.554688 -4.25 17.546875 -3.15625 C 16.546875 -2.0625 15.398438 -1.222656 14.109375 -0.640625 C 12.828125 -0.0546875 11.484375 0.234375 10.078125 0.234375 C 8.929688 0.234375 7.816406 -0.0390625 6.734375 -0.59375 C 5.660156 -1.144531 4.71875 -1.90625 3.90625 -2.875 C 3.101562 -3.84375 2.488281 -5.003906 2.0625 -6.359375 C 1.632812 -7.710938 1.488281 -9.191406 1.625 -10.796875 C 1.789062 -12.867188 2.195312 -14.828125 2.84375 -16.671875 C 3.5 -18.523438 4.347656 -20.113281 5.390625 -21.4375 C 5.648438 -21.789062 6.078125 -21.941406 6.671875 -21.890625 C 7.265625 -21.847656 7.816406 -21.617188 8.328125 -21.203125 C 8.960938 -21.640625 9.585938 -22.050781 10.203125 -22.4375 C 10.816406 -22.820312 11.5 -23.113281 12.25 -23.3125 C 13.113281 -23.539062 13.9375 -23.535156 14.71875 -23.296875 C 15.5 -23.066406 16.226562 -22.675781 16.90625 -22.125 C 17.59375 -21.582031 18.210938 -20.90625 18.765625 -20.09375 C 19.316406 -19.289062 19.785156 -18.445312 20.171875 -17.5625 C 20.554688 -16.6875 20.84375 -15.789062 21.03125 -14.875 C 21.21875 -13.96875 21.273438 -13.117188 21.203125 -12.328125 Z M 16.390625 -13.28125 C 16.234375 -14.90625 15.890625 -16.269531 15.359375 -17.375 C 14.828125 -18.476562 14.210938 -19.328125 13.515625 -19.921875 C 12.828125 -20.515625 12.117188 -20.851562 11.390625 -20.9375 C 10.671875 -21.03125 10.035156 -20.851562 9.484375 -20.40625 C 8.867188 -19.925781 8.34375 -19.320312 7.90625 -18.59375 C 7.476562 -17.863281 7.125 -17.039062 6.84375 -16.125 C 6.570312 -15.21875 6.375 -14.242188 6.25 -13.203125 C 6.132812 -12.171875 6.078125 -11.09375 6.078125 -9.96875 C 6.078125 -8.320312 6.28125 -6.9375 6.6875 -5.8125 C 7.09375 -4.6875 7.59375 -3.789062 8.1875 -3.125 C 8.78125 -2.46875 9.410156 -2.019531 10.078125 -1.78125 C 10.753906 -1.539062 11.347656 -1.472656 11.859375 -1.578125 C 12.515625 -1.734375 13.148438 -2.140625 13.765625 -2.796875 C 14.390625 -3.460938 14.914062 -4.316406 15.34375 -5.359375 C 15.769531 -6.410156 16.082031 -7.613281 16.28125 -8.96875 C 16.476562 -10.320312 16.515625 -11.757812 16.390625 -13.28125 Z M 16.390625 -13.28125 "/></g></g></g><g fill="#fefefe" fill-opacity="1"><g transform="translate(209.392829, 315.854115)"><g><path d="M 20.90625 -20.046875 C 19.851562 -19.453125 18.691406 -18.804688 17.421875 -18.109375 C 16.160156 -17.421875 14.898438 -16.722656 13.640625 -16.015625 C 12.390625 -15.316406 11.210938 -14.632812 10.109375 -13.96875 C 9.003906 -13.3125 8.085938 -12.71875 7.359375 -12.1875 C 8.285156 -11.59375 9.265625 -10.898438 10.296875 -10.109375 C 11.335938 -9.316406 12.390625 -8.457031 13.453125 -7.53125 C 14.523438 -6.601562 15.59375 -5.617188 16.65625 -4.578125 C 17.726562 -3.546875 18.769531 -2.484375 19.78125 -1.390625 C 20.375 -0.742188 20.566406 -0.382812 20.359375 -0.3125 C 20.148438 -0.238281 19.738281 -0.410156 19.125 -0.828125 C 17.1875 -2.148438 15.148438 -3.390625 13.015625 -4.546875 C 10.878906 -5.703125 8.832031 -6.753906 6.875 -7.703125 C 6.757812 -6.679688 6.65625 -5.703125 6.5625 -4.765625 C 6.476562 -3.835938 6.382812 -2.953125 6.28125 -2.109375 C 6.1875 -1.316406 6.050781 -0.734375 5.875 -0.359375 C 5.695312 0.015625 5.519531 0.195312 5.34375 0.1875 C 5.175781 0.175781 5.019531 -0.0195312 4.875 -0.40625 C 4.726562 -0.789062 4.632812 -1.347656 4.59375 -2.078125 C 4.550781 -3.085938 4.472656 -4.171875 4.359375 -5.328125 C 4.242188 -6.484375 4.125 -7.710938 4 -9.015625 C 3.78125 -9.128906 3.570312 -9.226562 3.375 -9.3125 C 3.175781 -9.40625 2.976562 -9.492188 2.78125 -9.578125 C 2.53125 -9.691406 2.515625 -9.914062 2.734375 -10.25 C 2.960938 -10.59375 3.296875 -10.941406 3.734375 -11.296875 C 3.515625 -13.054688 3.273438 -14.90625 3.015625 -16.84375 C 2.765625 -18.78125 2.5 -20.796875 2.21875 -22.890625 C 2.195312 -23.148438 2.320312 -23.3125 2.59375 -23.375 C 2.863281 -23.445312 3.210938 -23.441406 3.640625 -23.359375 C 4.078125 -23.285156 4.550781 -23.160156 5.0625 -22.984375 C 5.582031 -22.804688 6.0625 -22.597656 6.5 -22.359375 C 6.945312 -22.117188 7.3125 -21.851562 7.59375 -21.5625 C 7.882812 -21.28125 8.019531 -21.007812 8 -20.75 C 7.90625 -19.726562 7.816406 -18.679688 7.734375 -17.609375 C 7.660156 -16.546875 7.582031 -15.453125 7.5 -14.328125 C 8.226562 -15.171875 8.957031 -15.953125 9.6875 -16.671875 C 10.425781 -17.398438 11.140625 -18.078125 11.828125 -18.703125 C 12.523438 -19.335938 13.191406 -19.9375 13.828125 -20.5 C 14.472656 -21.0625 15.0625 -21.601562 15.59375 -22.125 C 15.769531 -22.300781 16.0625 -22.394531 16.46875 -22.40625 C 16.875 -22.414062 17.316406 -22.363281 17.796875 -22.25 C 18.285156 -22.144531 18.773438 -22.003906 19.265625 -21.828125 C 19.765625 -21.648438 20.179688 -21.453125 20.515625 -21.234375 C 20.847656 -21.015625 21.066406 -20.800781 21.171875 -20.59375 C 21.285156 -20.382812 21.195312 -20.203125 20.90625 -20.046875 Z M 20.90625 -20.046875 "/></g></g></g><g fill="#fefefe" fill-opacity="1"><g transform="translate(230.003551, 315.854115)"><g><path d="M 20.703125 -1.28125 C 20.992188 -0.289062 20.988281 0.222656 20.6875 0.265625 C 20.394531 0.304688 19.972656 -0.195312 19.421875 -1.25 C 18.847656 -2.351562 18.28125 -3.40625 17.71875 -4.40625 C 17.15625 -5.40625 16.597656 -6.378906 16.046875 -7.328125 C 15.054688 -6.929688 14.097656 -6.578125 13.171875 -6.265625 C 12.253906 -5.960938 11.34375 -5.675781 10.4375 -5.40625 C 9.53125 -5.144531 8.625 -4.898438 7.71875 -4.671875 C 6.820312 -4.441406 5.898438 -4.21875 4.953125 -4 C 4.773438 -3.957031 4.5625 -4.015625 4.3125 -4.171875 C 4.0625 -4.335938 3.789062 -4.554688 3.5 -4.828125 C 3.1875 -4.234375 2.867188 -3.632812 2.546875 -3.03125 C 2.234375 -2.4375 1.925781 -1.832031 1.625 -1.21875 C 1.351562 -0.6875 1.101562 -0.304688 0.875 -0.078125 C 0.644531 0.148438 0.46875 0.238281 0.34375 0.1875 C 0.226562 0.144531 0.175781 -0.03125 0.1875 -0.34375 C 0.195312 -0.664062 0.3125 -1.113281 0.53125 -1.6875 C 0.8125 -2.457031 1.085938 -3.222656 1.359375 -3.984375 C 1.640625 -4.742188 1.9375 -5.507812 2.25 -6.28125 C 1.957031 -6.71875 1.78125 -7.085938 1.71875 -7.390625 C 1.65625 -7.703125 1.773438 -7.867188 2.078125 -7.890625 C 2.210938 -7.890625 2.347656 -7.890625 2.484375 -7.890625 C 2.609375 -7.890625 2.738281 -7.898438 2.875 -7.921875 C 3.507812 -9.640625 4.195312 -11.476562 4.9375 -13.4375 C 5.675781 -15.40625 6.519531 -17.628906 7.46875 -20.109375 C 7.226562 -20.421875 6.992188 -20.722656 6.765625 -21.015625 C 6.546875 -21.316406 6.316406 -21.625 6.078125 -21.9375 C 5.898438 -22.175781 5.921875 -22.382812 6.140625 -22.5625 C 6.359375 -22.738281 6.695312 -22.878906 7.15625 -22.984375 C 7.625 -23.097656 8.15625 -23.164062 8.75 -23.1875 C 9.34375 -23.207031 9.921875 -23.179688 10.484375 -23.109375 C 11.046875 -23.046875 11.539062 -22.925781 11.96875 -22.75 C 12.40625 -22.582031 12.6875 -22.34375 12.8125 -22.03125 C 13.9375 -19.539062 14.929688 -17.28125 15.796875 -15.25 C 16.671875 -13.226562 17.472656 -11.207031 18.203125 -9.1875 C 18.304688 -9.226562 18.421875 -9.253906 18.546875 -9.265625 C 18.671875 -9.273438 18.785156 -9.289062 18.890625 -9.3125 C 19.859375 -9.488281 20.320312 -9.492188 20.28125 -9.328125 C 20.238281 -9.160156 19.8125 -8.90625 19 -8.5625 L 18.5 -8.359375 C 18.894531 -7.253906 19.269531 -6.128906 19.625 -4.984375 C 19.976562 -3.835938 20.335938 -2.601562 20.703125 -1.28125 Z M 15.1875 -8.75 C 14.394531 -10.070312 13.585938 -11.445312 12.765625 -12.875 C 11.941406 -14.3125 11.054688 -15.691406 10.109375 -17.015625 C 9.203125 -15.398438 8.34375 -13.820312 7.53125 -12.28125 C 6.71875 -10.738281 5.945312 -9.3125 5.21875 -8 C 7.113281 -8.0625 8.851562 -8.148438 10.4375 -8.265625 C 12.019531 -8.390625 13.601562 -8.550781 15.1875 -8.75 Z M 15.1875 -8.75 "/></g></g></g><g fill="#fefefe" fill-opacity="1"><g transform="translate(251.803354, 315.854115)"><g><path d="M 24.578125 -21.109375 C 24.554688 -19.367188 24.488281 -17.671875 24.375 -16.015625 C 24.269531 -14.367188 24.117188 -12.738281 23.921875 -11.125 C 23.722656 -9.519531 23.476562 -7.910156 23.1875 -6.296875 C 22.90625 -4.691406 22.550781 -3.066406 22.125 -1.421875 C 21.84375 -0.296875 21.597656 0.234375 21.390625 0.171875 C 21.179688 0.117188 21.054688 -0.519531 21.015625 -1.75 C 20.878906 -5.144531 20.691406 -8.351562 20.453125 -11.375 C 20.222656 -14.40625 19.957031 -17.304688 19.65625 -20.078125 C 19.21875 -18.734375 18.816406 -17.445312 18.453125 -16.21875 C 18.085938 -14.988281 17.726562 -13.832031 17.375 -12.75 C 17.019531 -11.664062 16.671875 -10.664062 16.328125 -9.75 C 15.992188 -8.84375 15.613281 -8.035156 15.1875 -7.328125 C 15.082031 -7.128906 14.828125 -6.945312 14.421875 -6.78125 C 14.015625 -6.625 13.566406 -6.492188 13.078125 -6.390625 C 12.597656 -6.296875 12.140625 -6.257812 11.703125 -6.28125 C 11.273438 -6.300781 10.972656 -6.410156 10.796875 -6.609375 C 10.160156 -7.398438 9.460938 -8.40625 8.703125 -9.625 C 7.941406 -10.851562 7.175781 -12.113281 6.40625 -13.40625 C 6.300781 -11.488281 6.207031 -9.550781 6.125 -7.59375 C 6.050781 -5.632812 6.035156 -3.765625 6.078125 -1.984375 C 6.097656 -1.171875 6.0625 -0.585938 5.96875 -0.234375 C 5.882812 0.117188 5.765625 0.28125 5.609375 0.25 C 5.460938 0.21875 5.304688 0.00390625 5.140625 -0.390625 C 4.972656 -0.785156 4.832031 -1.347656 4.71875 -2.078125 C 4.570312 -3.117188 4.425781 -4.203125 4.28125 -5.328125 C 4.132812 -6.460938 4 -7.660156 3.875 -8.921875 C 3.757812 -10.191406 3.644531 -11.546875 3.53125 -12.984375 C 3.425781 -14.429688 3.304688 -15.984375 3.171875 -17.640625 C 2.972656 -17.992188 2.785156 -18.320312 2.609375 -18.625 C 2.429688 -18.9375 2.253906 -19.242188 2.078125 -19.546875 C 1.898438 -19.878906 1.863281 -20.226562 1.96875 -20.59375 C 2.082031 -20.957031 2.273438 -21.316406 2.546875 -21.671875 C 2.828125 -22.023438 3.15625 -22.34375 3.53125 -22.625 C 3.90625 -22.914062 4.273438 -23.128906 4.640625 -23.265625 C 5.003906 -23.410156 5.332031 -23.472656 5.625 -23.453125 C 5.925781 -23.429688 6.132812 -23.273438 6.25 -22.984375 C 6.644531 -21.910156 7.035156 -20.789062 7.421875 -19.625 C 7.804688 -18.457031 8.171875 -17.320312 8.515625 -16.21875 C 8.867188 -15.113281 9.207031 -14.09375 9.53125 -13.15625 C 9.851562 -12.226562 10.132812 -11.460938 10.375 -10.859375 C 10.613281 -10.265625 10.847656 -9.972656 11.078125 -9.984375 C 11.304688 -10.003906 11.617188 -10.265625 12.015625 -10.765625 C 13.117188 -12.148438 14.242188 -13.875 15.390625 -15.9375 C 16.535156 -18 17.601562 -20.285156 18.59375 -22.796875 C 18.707031 -23.054688 18.929688 -23.226562 19.265625 -23.3125 C 19.609375 -23.40625 20 -23.425781 20.4375 -23.375 C 20.882812 -23.332031 21.351562 -23.234375 21.84375 -23.078125 C 22.34375 -22.929688 22.789062 -22.753906 23.1875 -22.546875 C 23.582031 -22.335938 23.910156 -22.101562 24.171875 -21.84375 C 24.441406 -21.59375 24.578125 -21.347656 24.578125 -21.109375 Z M 24.578125 -21.109375 "/></g></g></g><g fill="#fefefe" fill-opacity="1"><g transform="translate(278.590692, 315.854115)"><g><path d="M 9.15625 -20.75 C 9.039062 -19.25 8.90625 -17.675781 8.75 -16.03125 C 8.59375 -14.394531 8.421875 -12.757812 8.234375 -11.125 C 8.046875 -9.5 7.84375 -7.914062 7.625 -6.375 C 7.40625 -4.832031 7.164062 -3.410156 6.90625 -2.109375 C 6.59375 -0.523438 6.253906 0.234375 5.890625 0.171875 C 5.523438 0.117188 5.300781 -0.628906 5.21875 -2.078125 C 5.0625 -4.679688 4.769531 -7.757812 4.34375 -11.3125 C 3.914062 -14.863281 3.414062 -18.722656 2.84375 -22.890625 C 2.800781 -23.148438 2.929688 -23.3125 3.234375 -23.375 C 3.546875 -23.445312 3.9375 -23.441406 4.40625 -23.359375 C 4.882812 -23.285156 5.398438 -23.160156 5.953125 -22.984375 C 6.515625 -22.804688 7.035156 -22.597656 7.515625 -22.359375 C 8.003906 -22.117188 8.40625 -21.851562 8.71875 -21.5625 C 9.03125 -21.28125 9.175781 -21.007812 9.15625 -20.75 Z M 9.15625 -20.75 "/></g></g></g></svg>